# File created by Blade
# Date/Time:  Wed Jan 21 17:57:11 2015
# Frame Rate: 120.000 fps
#------------------------------------------------------
:FULLY-SPECIFIED
:DEGREES
1430
root 19.083512 29.607462 -15.537349 -111.263146 43.318645 -183.639894
Spine 61.917222 -13.779216 25.294540
Head 90.703283 76.138633 143.360218
LeftShoulder 30.043413 -58.667073 31.648781
LeftArm 38.673948 -21.070917 -11.357329
LeftForeArm 15.739339 -0.000000 82.224139
LeftHand -15.217735 -0.000000 -30.685731
LeftHandThumb1 -26.253704 0.000000 33.147579
RightShoulder 17.957447 15.684233 -19.772925
RightArm 42.364872 64.328093 28.578033
RightForeArm 35.214144 -0.000000 60.388664
RightHand 5.590049 -0.000000 17.491418
RightHandThumb1 -24.326973 -0.000000 -32.862282
LeftUpLeg -63.176962 39.824056 -25.792899
LeftLeg -3.633055 -0.000000 0.000000
LeftFoot -20.391939 10.699946 -25.470327
LeftToeBase 29.919716 -0.000000 -0.000000
RightUpLeg -97.491133 -20.478808 -30.123554
RightLeg 13.074926 -0.000000 -0.000000
RightFoot -7.342620 -8.714894 23.920560
RightToeBase 19.686015 -0.000000 -0.000000
1431
root 19.087618 29.613323 -15.555030 -111.129680 43.266467 -183.524851
Spine 61.905092 -13.811034 25.338562
Head 91.593699 75.979727 144.180272
LeftShoulder 30.139851 -58.598711 31.540780
LeftArm 38.585600 -21.121683 -11.261189
LeftForeArm 15.704874 0.000000 82.268828
LeftHand -15.232006 -0.000000 -30.734255
LeftHandThumb1 -26.253704 0.000000 33.147579
RightShoulder 17.952716 15.646421 -19.827433
RightArm 42.448355 64.314516 28.642554
RightForeArm 35.116893 -0.000000 60.363552
RightHand 5.595874 -0.000000 17.543646
RightHandThumb1 -24.326973 -0.000000 -32.862282
LeftUpLeg -63.240960 39.838052 -25.751739
LeftLeg -3.604681 -0.000000 0.000000
LeftFoot -20.481638 10.679367 -25.392974
LeftToeBase 29.840867 -0.000000 -0.000000
RightUpLeg -97.471835 -20.443779 -30.005933
RightLeg 12.951074 -0.000000 -0.000000
RightFoot -7.362376 -8.701318 23.903577
RightToeBase 19.756684 -0.000000 -0.000000
1432
root 19.090547 29.618849 -15.571335 -111.036735 43.219080 -183.452058
Spine 61.908351 -13.854182 25.334972
Head 91.998146 75.890622 144.582406
LeftShoulder 30.217629 -58.490245 31.488678
LeftArm 38.480992 -21.224741 -11.138676
LeftForeArm 15.618640 -0.000000 82.303826
LeftHand -15.220382 -0.000000 -30.698104
LeftHandThumb1 -26.253704 0.000000 33.147579
RightShoulder 17.948498 15.569987 -19.861697
RightArm 42.486054 64.332627 28.671516
RightForeArm 35.268117 -0.000000 60.449586
RightHand 5.686133 -0.000000 17.403263
RightHandThumb1 -24.326973 -0.000000 -32.862282
LeftUpLeg -63.287783 39.837865 -25.724416
LeftLeg -3.582586 -0.000000 0.000000
LeftFoot -20.551397 10.654560 -25.376887
LeftToeBase 29.719580 -0.000000 -0.000000
RightUpLeg -97.440405 -20.437062 -29.934236
RightLeg 12.858042 -0.000000 -0.000000
RightFoot -7.376820 -8.712139 23.905727
RightToeBase 19.800755 -0.000000 -0.000000
1433
root 19.093209 29.623975 -15.585811 -110.925645 43.158053 -183.366698
Spine 61.882747 -13.898028 25.344045
Head 93.156563 75.665230 145.735604
LeftShoulder 30.409685 -58.425154 31.323377
LeftArm 38.324822 -21.265581 -11.025397
LeftForeArm 15.582033 -0.000000 82.364275
LeftHand -15.211587 0.000000 -30.713958
LeftHandThumb1 -26.253704 0.000000 33.147579
RightShoulder 17.980626 15.512562 -19.873197
RightArm 42.544785 64.335300 28.673645
RightForeArm 35.219086 0.000000 60.430414
RightHand 5.666382 -0.000000 17.412083
RightHandThumb1 -24.326973 -0.000000 -32.862282
LeftUpLeg -63.357081 39.836636 -25.688158
LeftLeg -3.555921 -0.000000 0.000000
LeftFoot -20.612468 10.670363 -25.326706
LeftToeBase 29.723526 -0.000000 -0.000000
RightUpLeg -97.433479 -20.428465 -29.845241
RightLeg 12.783196 -0.000000 -0.000000
RightFoot -7.377462 -8.712267 23.899015
RightToeBase 19.795966 -0.000000 -0.000000
1434
root 19.093381 29.627868 -15.602173 -110.854640 43.114389 -183.318536
Spine 61.881781 -13.947532 25.334315
Head 93.561165 75.605673 146.150575
LeftShoulder 30.521108 -58.359447 31.235813
LeftArm 38.217309 -21.349745 -10.950085
LeftForeArm 15.487763 -0.000000 82.410008
LeftHand -15.206408 -0.000000 -30.729775
LeftHandThumb1 -26.253704 0.000000 33.147579
RightShoulder 17.966542 15.458101 -19.888958
RightArm 42.630895 64.356357 28.687916
RightForeArm 35.061241 -0.000000 60.401926
RightHand 5.582862 -0.000000 17.398644
RightHandThumb1 -24.326973 -0.000000 -32.862282
LeftUpLeg -63.387939 39.828519 -25.671420
LeftLeg -3.564442 -0.000000 0.000000
LeftFoot -20.708533 10.728364 -25.164004
LeftToeBase 29.976846 -0.000000 -0.000000
RightUpLeg -97.419231 -20.434976 -29.773631
RightLeg 12.719102 -0.000000 -0.000000
RightFoot -7.332600 -8.767637 23.871256
RightToeBase 19.863516 -0.000000 -0.000000
1435
root 19.094219 29.632112 -15.617530 -110.792902 43.076458 -183.273199
Spine 61.872067 -13.960928 25.313451
Head 94.327571 75.429425 147.045255
LeftShoulder 30.704800 -58.200588 31.135613
LeftArm 38.100015 -21.503023 -10.800015
LeftForeArm 15.390008 -0.000000 82.445528
LeftHand -15.202787 0.000000 -30.662962
LeftHandThumb1 -26.253704 0.000000 33.147579
RightShoulder 17.983344 15.394039 -19.863527
RightArm 42.471332 64.345240 28.437222
RightForeArm 35.251206 -0.000000 60.375192
RightHand 5.522247 -0.000000 17.337511
RightHandThumb1 -24.326973 -0.000000 -32.862282
LeftUpLeg -63.387036 39.810458 -25.624027
LeftLeg -3.570613 -0.000000 0.000000
LeftFoot -20.669225 10.720190 -25.315989
LeftToeBase 29.626615 -0.000000 -0.000000
RightUpLeg -97.390117 -20.435525 -29.734681
RightLeg 12.655844 -0.000000 -0.000000
RightFoot -7.336083 -8.778184 23.850614
RightToeBase 19.513934 -0.000000 -0.000000
1436
root 19.090877 29.635743 -15.634549 -110.733864 43.052187 -183.260668
Spine 61.832363 -14.006510 25.280287
Head 94.951498 75.294825 147.739366
LeftShoulder 30.884411 -58.097621 30.985642
LeftArm 37.980533 -21.595281 -10.699689
LeftForeArm 15.364132 -0.000000 82.517860
LeftHand -15.221073 -0.000000 -30.619488
LeftHandThumb1 -26.253704 0.000000 33.147579
RightShoulder 17.984637 15.292675 -19.873729
RightArm 42.381403 64.367102 28.229701
RightForeArm 35.324952 -0.000000 60.341648
RightHand 5.465806 -0.000000 17.357811
RightHandThumb1 -24.326973 -0.000000 -32.862282
LeftUpLeg -63.409138 39.775471 -25.638211
LeftLeg -3.608574 -0.000000 0.000000
LeftFoot -20.662808 10.815927 -25.307731
LeftToeBase 29.088602 -0.000000 -0.000000
RightUpLeg -97.363769 -20.468689 -29.718331
RightLeg 12.576770 -0.000000 -0.000000
RightFoot -7.300734 -8.852161 23.792590
RightToeBase 19.449041 -0.000000 -0.000000
1437
root 19.087713 29.638156 -15.653031 -110.682195 43.038783 -183.234462
Spine 61.832307 -14.040558 25.244241
Head 95.327882 75.218991 148.161178
LeftShoulder 30.943004 -57.988861 30.937976
LeftArm 37.929678 -21.728003 -10.675363
LeftForeArm 15.327871 0.000000 82.564648
LeftHand -15.212823 0.000000 -30.598361
LeftHandThumb1 -26.253704 0.000000 33.147579
RightShoulder 17.942405 15.171437 -19.920166
RightArm 42.416047 64.440984 28.171387
RightForeArm 35.301696 -0.000000 60.330684
RightHand 5.373058 0.000000 17.382545
RightHandThumb1 -24.326973 -0.000000 -32.862282
LeftUpLeg -63.420574 39.768886 -25.662412
LeftLeg -3.647647 -0.000000 0.000000
LeftFoot -20.650804 10.853861 -25.328078
LeftToeBase 29.079791 -0.000000 -0.000000
RightUpLeg -97.334309 -20.484435 -29.697147
RightLeg 12.501669 -0.000000 -0.000000
RightFoot -7.258395 -8.890564 23.780792
RightToeBase 19.955103 -0.000000 -0.000000
1438
root 19.084179 29.640982 -15.669573 -110.627704 43.026719 -183.205167
Spine 61.837650 -14.062910 25.200595
Head 95.487670 75.164241 148.386827
LeftShoulder 30.981707 -57.862409 30.901776
LeftArm 37.912882 -21.872793 -10.628573
LeftForeArm 15.300480 0.000000 82.585055
LeftHand -15.218139 0.000000 -30.576859
LeftHandThumb1 -26.253704 0.000000 33.147579
RightShoulder 17.881845 15.073581 -19.957316
RightArm 42.408757 64.482431 28.068574
RightForeArm 35.217177 -0.000000 60.309191
RightHand 5.318772 -0.000000 17.399571
RightHandThumb1 -24.326973 -0.000000 -32.862282
LeftUpLeg -63.415184 39.750528 -25.656571
LeftLeg -3.683836 -0.000000 0.000000
LeftFoot -20.640987 10.886630 -25.399783
LeftToeBase 29.677975 -0.000000 -0.000000
RightUpLeg -97.298442 -20.493336 -29.682998
RightLeg 12.408681 -0.000000 -0.000000
RightFoot -7.216284 -8.945299 23.691872
RightToeBase 19.993342 -0.000000 -0.000000
1439
root 19.080263 29.643641 -15.685672 -110.568214 43.020836 -183.165169
Spine 61.838662 -14.071386 25.137992
Head 96.089941 75.016004 149.084555
LeftShoulder 31.081365 -57.756721 30.853122
LeftArm 37.824937 -21.975271 -10.546650
LeftForeArm 15.272887 -0.000000 82.626627
LeftHand -15.198941 -0.000000 -30.580152
LeftHandThumb1 -26.253704 0.000000 33.147579
RightShoulder 17.841772 14.977166 -19.984843
RightArm 42.453537 64.517674 28.035006
RightForeArm 35.275467 -0.000000 60.281780
RightHand 5.247106 0.000000 17.348862
RightHandThumb1 -24.326973 -0.000000 -32.862282
LeftUpLeg -63.418121 39.746925 -25.664845
LeftLeg -3.730822 -0.000000 0.000000
LeftFoot -20.607574 10.969184 -25.428207
LeftToeBase 29.690350 -0.000000 -0.000000
RightUpLeg -97.274745 -20.494604 -29.651011
RightLeg 12.316853 -0.000000 -0.000000
RightFoot -7.143194 -8.975455 23.640906
RightToeBase 19.906784 -0.000000 -0.000000
1440
root 19.074880 29.646455 -15.703853 -110.514111 43.024726 -183.139911
Spine 61.831870 -14.087372 25.078982
Head 96.462265 74.876603 149.513057
LeftShoulder 31.209664 -57.727224 30.755828
LeftArm 37.727293 -22.006352 -10.514555
LeftForeArm 15.221941 -0.000000 82.696671
LeftHand -15.233797 0.000000 -30.726870
LeftHandThumb1 -26.253704 0.000000 33.147579
RightShoulder 17.806645 14.906557 -20.036521
RightArm 42.375920 64.561748 27.915806
RightForeArm 35.213608 -0.000000 60.267561
RightHand 5.205230 0.000000 17.413377
RightHandThumb1 -24.326973 -0.000000 -32.862282
LeftUpLeg -63.393322 39.722703 -25.662206
LeftLeg -3.792888 -0.000000 0.000000
LeftFoot -20.571832 11.075291 -25.490796
LeftToeBase 29.781291 -0.000000 -0.000000
RightUpLeg -97.243239 -20.504856 -29.626863
RightLeg 12.210007 -0.000000 -0.000000
RightFoot -7.083911 -9.024259 23.550326
RightToeBase 19.951405 -0.000000 -0.000000
1441
root 19.069228 29.649574 -15.721610 -110.449711 43.041702 -183.102798
Spine 61.835282 -14.079909 25.011281
Head 96.795734 74.770941 149.904749
LeftShoulder 31.342613 -57.652839 30.642007
LeftArm 37.671383 -22.063830 -10.394157
LeftForeArm 15.205062 0.000000 82.710215
LeftHand -15.199026 -0.000000 -30.528913
LeftHandThumb1 -26.253704 0.000000 33.147579
RightShoulder 17.759097 14.794014 -20.072486
RightArm 42.398420 64.625801 27.847784
RightForeArm 35.155058 0.000000 60.222357
RightHand 5.254948 0.000000 17.450067
RightHandThumb1 -24.326973 -0.000000 -32.862282
LeftUpLeg -63.391291 39.720313 -25.700670
LeftLeg -3.872404 -0.000000 0.000000
LeftFoot -20.525089 11.243101 -25.498511
LeftToeBase 29.314724 -0.000000 -0.000000
RightUpLeg -97.208080 -20.504025 -29.617520
RightLeg 12.082036 -0.000000 -0.000000
RightFoot -7.013342 -9.087410 23.499328
RightToeBase 19.940111 -0.000000 -0.000000
1442
root 19.063584 29.651233 -15.739482 -110.400105 43.063707 -183.061716
Spine 61.840280 -14.060235 24.937597
Head 97.477083 74.564884 150.677180
LeftShoulder 31.365185 -57.447471 30.645574
LeftArm 37.702971 -22.238623 -10.315372
LeftForeArm 15.231801 -0.000000 82.698277
LeftHand -15.181034 0.000000 -30.463456
LeftHandThumb1 -26.253704 0.000000 33.147579
RightShoulder 17.740748 14.654510 -20.082685
RightArm 42.292282 64.717587 27.638610
RightForeArm 35.018757 -0.000000 60.133514
RightHand 5.317250 -0.000000 17.580536
RightHandThumb1 -24.326973 -0.000000 -32.862282
LeftUpLeg -63.334802 39.713964 -25.683172
LeftLeg -3.957491 -0.000000 0.000000
LeftFoot -20.489559 11.422052 -25.604518
LeftToeBase 29.834054 -0.000000 -0.000000
RightUpLeg -97.177902 -20.492311 -29.599665
RightLeg 11.975586 -0.000000 -0.000000
RightFoot -6.940710 -9.106628 23.412760
RightToeBase 20.174362 -0.000000 -0.000000
